<?xml version="1.0" encoding="utf-8"?>
<!-- Generator: Adobe Illustrator 16.0.4, SVG Export Plug-In . SVG Version: 6.00 Build 0)  -->
<!DOCTYPE svg PUBLIC "-//W3C//DTD SVG 1.1//EN" "http://www.w3.org/Graphics/SVG/1.1/DTD/svg11.dtd">
<svg version="1.1" id="Calque_1" xmlns="http://www.w3.org/2000/svg" xmlns:xlink="http://www.w3.org/1999/xlink" x="0px" y="0px"
	 width="56px" height="56px" viewBox="0 0 56 56" enable-background="new 0 0 56 56" xml:space="preserve">
<rect x="0.416" y="17.179" fill="#C7363A" width="1.534" height="1.582"/>
<rect x="1.949" y="17.179" fill="#C7363A" width="1.534" height="1.582"/>
<rect x="1.949" y="18.761" fill="#C7363A" width="1.534" height="1.582"/>
<rect x="3.483" y="17.179" fill="#C7363A" width="1.533" height="1.582"/>
<rect x="3.483" y="18.761" fill="#C7363A" width="1.533" height="1.582"/>
<rect x="5.016" y="17.179" fill="#C7363A" width="1.534" height="1.582"/>
<rect x="5.016" y="18.761" fill="#C7363A" width="1.534" height="1.582"/>
<rect x="6.55" y="17.179" fill="#C7363A" width="1.533" height="1.582"/>
<rect x="6.55" y="18.761" fill="#C7363A" width="1.533" height="1.582"/>
<rect x="8.083" y="17.179" fill="#C7363A" width="1.533" height="1.582"/>
<rect x="8.083" y="18.761" fill="#C7363A" width="1.533" height="1.582"/>
<rect x="9.616" y="17.179" fill="#C7363A" width="1.534" height="1.582"/>
<rect x="9.616" y="18.761" fill="#C7363A" width="1.534" height="1.582"/>
<rect x="11.15" y="17.179" fill="#C7363A" width="1.533" height="1.582"/>
<rect x="11.15" y="18.761" fill="#C7363A" width="1.533" height="1.582"/>
<rect x="12.683" y="17.179" fill="#C7363A" width="1.533" height="1.582"/>
<rect x="12.683" y="18.761" fill="#C7363A" width="1.533" height="1.582"/>
<rect x="14.216" y="17.179" fill="#C7363A" width="1.535" height="1.582"/>
<rect x="14.216" y="18.761" fill="#C7363A" width="1.535" height="1.582"/>
<rect x="15.751" y="17.179" fill="#C7363A" width="1.533" height="1.582"/>
<rect x="15.751" y="18.761" fill="#C7363A" width="1.533" height="1.582"/>
<rect x="17.284" y="17.179" fill="#C7363A" width="1.534" height="1.582"/>
<rect x="17.284" y="18.761" fill="#C7363A" width="1.534" height="1.582"/>
<rect x="0.416" y="18.761" fill="#C7363A" width="1.534" height="1.582"/>
<rect x="18.817" y="17.179" fill="#C7363A" width="1.534" height="1.582"/>
<rect x="20.351" y="17.179" fill="#C7363A" width="1.533" height="1.582"/>
<rect x="20.351" y="18.761" fill="#C7363A" width="1.533" height="1.582"/>
<rect x="21.884" y="17.179" fill="#C7363A" width="1.534" height="1.582"/>
<rect x="21.884" y="18.761" fill="#C7363A" width="1.534" height="1.582"/>
<rect x="23.417" y="17.179" fill="#C7363A" width="1.534" height="1.582"/>
<rect x="23.417" y="18.761" fill="#C7363A" width="1.534" height="1.582"/>
<rect x="24.951" y="17.179" fill="#C7363A" width="1.534" height="1.582"/>
<rect x="24.951" y="18.761" fill="#C7363A" width="1.534" height="1.582"/>
<rect x="26.485" y="17.179" fill="#C7363A" width="1.533" height="1.582"/>
<rect x="26.485" y="18.761" fill="#C7363A" width="1.533" height="1.582"/>
<rect x="28.018" y="17.179" fill="#C7363A" width="1.533" height="1.582"/>
<rect x="28.018" y="18.761" fill="#C7363A" width="1.533" height="1.582"/>
<rect x="29.551" y="17.179" fill="#C7363A" width="1.534" height="1.582"/>
<rect x="29.551" y="18.761" fill="#C7363A" width="1.534" height="1.582"/>
<rect x="31.085" y="17.179" fill="#C7363A" width="1.535" height="1.582"/>
<rect x="31.085" y="18.761" fill="#C7363A" width="1.535" height="1.582"/>
<rect x="32.62" y="17.179" fill="#C7363A" width="1.532" height="1.582"/>
<rect x="32.62" y="18.761" fill="#C7363A" width="1.532" height="1.582"/>
<rect x="34.152" y="17.179" fill="#C7363A" width="1.532" height="1.582"/>
<rect x="34.152" y="18.761" fill="#C7363A" width="1.532" height="1.582"/>
<rect x="35.685" y="17.179" fill="#C7363A" width="1.534" height="1.582"/>
<rect x="35.685" y="18.761" fill="#C7363A" width="1.534" height="1.582"/>
<rect x="37.219" y="17.179" fill="#C7363A" width="1.533" height="1.582"/>
<rect x="37.219" y="18.761" fill="#C7363A" width="1.533" height="1.582"/>
<rect x="38.752" y="17.179" fill="#C7363A" width="1.533" height="1.582"/>
<rect x="38.752" y="18.761" fill="#C7363A" width="1.533" height="1.582"/>
<rect x="40.285" y="17.179" fill="#C7363A" width="1.534" height="1.582"/>
<rect x="40.285" y="18.761" fill="#C7363A" width="1.534" height="1.582"/>
<rect x="41.819" y="17.179" fill="#C7363A" width="1.532" height="1.582"/>
<rect x="41.819" y="18.761" fill="#C7363A" width="1.532" height="1.582"/>
<rect x="43.352" y="17.179" fill="#C7363A" width="1.536" height="1.582"/>
<rect x="43.352" y="18.761" fill="#C7363A" width="1.536" height="1.582"/>
<rect x="44.888" y="17.179" fill="#C7363A" width="1.532" height="1.582"/>
<rect x="44.888" y="18.761" fill="#C7363A" width="1.532" height="1.582"/>
<rect x="46.42" y="17.179" fill="#C7363A" width="1.533" height="1.582"/>
<rect x="46.42" y="18.761" fill="#C7363A" width="1.533" height="1.582"/>
<rect x="47.953" y="17.179" fill="#C7363A" width="1.532" height="1.582"/>
<rect x="47.953" y="18.761" fill="#C7363A" width="1.532" height="1.582"/>
<rect x="49.485" y="17.179" fill="#C7363A" width="1.534" height="1.582"/>
<rect x="49.485" y="18.761" fill="#C7363A" width="1.534" height="1.582"/>
<rect x="51.02" y="17.179" fill="#C7363A" width="1.535" height="1.582"/>
<rect x="51.02" y="18.761" fill="#C7363A" width="1.535" height="1.582"/>
<rect x="52.555" y="17.179" fill="#C7363A" width="1.532" height="1.582"/>
<rect x="52.555" y="18.761" fill="#C7363A" width="1.532" height="1.582"/>
<rect x="54.087" y="17.179" fill="#C7363A" width="1.534" height="1.582"/>
<rect x="54.087" y="18.761" fill="#C7363A" width="1.534" height="1.582"/>
<rect x="18.817" y="18.761" fill="#C7363A" width="1.534" height="1.582"/>
<rect x="0.416" y="32.998" fill="#C7363A" width="1.534" height="1.582"/>
<rect x="1.949" y="32.998" fill="#C7363A" width="1.534" height="1.582"/>
<rect x="1.949" y="34.58" fill="#C7363A" width="1.534" height="1.582"/>
<rect x="3.483" y="32.998" fill="#C7363A" width="1.533" height="1.582"/>
<rect x="3.483" y="34.58" fill="#C7363A" width="1.533" height="1.582"/>
<rect x="5.016" y="32.998" fill="#C7363A" width="1.534" height="1.582"/>
<rect x="5.016" y="34.58" fill="#C7363A" width="1.534" height="1.582"/>
<rect x="6.55" y="32.998" fill="#C7363A" width="1.533" height="1.582"/>
<rect x="6.55" y="34.58" fill="#C7363A" width="1.533" height="1.582"/>
<rect x="8.083" y="32.998" fill="#C7363A" width="1.533" height="1.582"/>
<rect x="8.083" y="34.58" fill="#C7363A" width="1.533" height="1.582"/>
<rect x="9.616" y="32.998" fill="#C7363A" width="1.534" height="1.582"/>
<rect x="9.616" y="34.58" fill="#C7363A" width="1.534" height="1.582"/>
<rect x="11.15" y="32.998" fill="#C7363A" width="1.533" height="1.582"/>
<rect x="11.15" y="34.58" fill="#C7363A" width="1.533" height="1.582"/>
<rect x="12.683" y="32.998" fill="#C7363A" width="1.533" height="1.582"/>
<rect x="12.683" y="34.58" fill="#C7363A" width="1.533" height="1.582"/>
<rect x="14.216" y="32.998" fill="#C7363A" width="1.535" height="1.582"/>
<rect x="14.216" y="34.58" fill="#C7363A" width="1.535" height="1.582"/>
<rect x="15.751" y="32.998" fill="#C7363A" width="1.533" height="1.582"/>
<rect x="17.284" y="32.998" fill="#C7363A" width="1.534" height="1.582"/>
<rect x="15.751" y="34.58" fill="#C7363A" width="1.533" height="1.582"/>
<rect x="17.284" y="34.58" fill="#C7363A" width="1.534" height="1.582"/>
<rect x="15.751" y="36.162" fill="#C7363A" width="1.533" height="1.581"/>
<rect x="17.284" y="36.162" fill="#C7363A" width="1.534" height="1.581"/>
<rect x="15.751" y="37.743" fill="#C7363A" width="1.533" height="1.583"/>
<rect x="17.284" y="37.743" fill="#C7363A" width="1.534" height="1.583"/>
<rect x="18.817" y="36.162" fill="#C7363A" width="1.534" height="1.581"/>
<rect x="20.351" y="36.162" fill="#C7363A" width="1.533" height="1.581"/>
<rect x="18.817" y="37.743" fill="#C7363A" width="1.534" height="1.583"/>
<rect x="20.351" y="37.743" fill="#C7363A" width="1.533" height="1.583"/>
<rect x="21.884" y="36.162" fill="#C7363A" width="1.534" height="1.581"/>
<rect x="23.417" y="36.162" fill="#C7363A" width="1.534" height="1.581"/>
<rect x="21.884" y="37.743" fill="#C7363A" width="1.534" height="1.583"/>
<rect x="23.417" y="37.743" fill="#C7363A" width="1.534" height="1.583"/>
<rect x="24.951" y="36.162" fill="#C7363A" width="1.534" height="1.581"/>
<rect x="26.485" y="36.162" fill="#C7363A" width="1.533" height="1.581"/>
<rect x="24.951" y="37.743" fill="#C7363A" width="1.534" height="1.583"/>
<rect x="26.485" y="37.743" fill="#C7363A" width="1.533" height="1.583"/>
<rect x="0.416" y="34.58" fill="#C7363A" width="1.534" height="1.582"/>
<rect x="24.951" y="32.998" fill="#C7363A" width="1.534" height="1.582"/>
<rect x="26.485" y="32.998" fill="#C7363A" width="1.533" height="1.582"/>
<rect x="26.485" y="34.58" fill="#C7363A" width="1.533" height="1.582"/>
<rect x="28.018" y="32.998" fill="#C7363A" width="1.533" height="1.582"/>
<rect x="28.018" y="34.58" fill="#C7363A" width="1.533" height="1.582"/>
<rect x="29.551" y="32.998" fill="#C7363A" width="1.534" height="1.582"/>
<rect x="29.551" y="34.58" fill="#C7363A" width="1.534" height="1.582"/>
<rect x="31.085" y="32.998" fill="#C7363A" width="1.535" height="1.582"/>
<rect x="31.085" y="34.58" fill="#C7363A" width="1.535" height="1.582"/>
<rect x="32.62" y="32.998" fill="#C7363A" width="1.532" height="1.582"/>
<rect x="32.62" y="34.58" fill="#C7363A" width="1.532" height="1.582"/>
<rect x="34.152" y="32.998" fill="#C7363A" width="1.532" height="1.582"/>
<rect x="34.152" y="34.58" fill="#C7363A" width="1.532" height="1.582"/>
<rect x="35.685" y="32.998" fill="#C7363A" width="1.534" height="1.582"/>
<rect x="35.685" y="34.58" fill="#C7363A" width="1.534" height="1.582"/>
<rect x="37.219" y="32.998" fill="#C7363A" width="1.533" height="1.582"/>
<rect x="37.219" y="34.58" fill="#C7363A" width="1.533" height="1.582"/>
<rect x="38.752" y="32.998" fill="#C7363A" width="1.533" height="1.582"/>
<rect x="38.752" y="34.58" fill="#C7363A" width="1.533" height="1.582"/>
<rect x="40.285" y="32.998" fill="#C7363A" width="1.534" height="1.582"/>
<rect x="41.819" y="32.998" fill="#C7363A" width="1.532" height="1.582"/>
<rect x="40.285" y="34.58" fill="#C7363A" width="1.534" height="1.582"/>
<rect x="41.819" y="34.58" fill="#C7363A" width="1.532" height="1.582"/>
<rect x="43.352" y="32.998" fill="#C7363A" width="1.536" height="1.582"/>
<rect x="43.352" y="34.58" fill="#C7363A" width="1.536" height="1.582"/>
<rect x="44.888" y="32.998" fill="#C7363A" width="1.532" height="1.582"/>
<rect x="44.888" y="34.58" fill="#C7363A" width="1.532" height="1.582"/>
<rect x="46.42" y="32.998" fill="#C7363A" width="1.533" height="1.582"/>
<rect x="46.42" y="34.58" fill="#C7363A" width="1.533" height="1.582"/>
<rect x="47.953" y="32.998" fill="#C7363A" width="1.532" height="1.582"/>
<rect x="47.953" y="34.58" fill="#C7363A" width="1.532" height="1.582"/>
<rect x="49.485" y="32.998" fill="#C7363A" width="1.534" height="1.582"/>
<rect x="51.02" y="32.998" fill="#C7363A" width="1.535" height="1.582"/>
<rect x="49.485" y="34.58" fill="#C7363A" width="1.534" height="1.582"/>
<rect x="51.02" y="34.58" fill="#C7363A" width="1.535" height="1.582"/>
<rect x="52.555" y="32.998" fill="#C7363A" width="1.532" height="1.582"/>
<rect x="54.087" y="32.998" fill="#C7363A" width="1.534" height="1.582"/>
<rect x="52.555" y="34.58" fill="#C7363A" width="1.532" height="1.582"/>
<rect x="54.087" y="34.58" fill="#C7363A" width="1.534" height="1.582"/>
<rect x="24.951" y="34.58" fill="#C7363A" width="1.534" height="1.582"/>
<rect x="0.416" y="20.343" fill="#C7363A" width="1.534" height="1.582"/>
<rect x="1.949" y="20.343" fill="#C7363A" width="1.534" height="1.582"/>
<rect x="1.949" y="21.925" fill="#C7363A" width="1.534" height="1.582"/>
<rect x="0.416" y="21.925" fill="#C7363A" width="1.534" height="1.582"/>
<rect x="0.416" y="23.507" fill="#C7363A" width="1.534" height="1.582"/>
<rect x="1.949" y="23.507" fill="#C7363A" width="1.534" height="1.582"/>
<rect x="1.949" y="25.089" fill="#C7363A" width="1.534" height="1.582"/>
<rect x="0.416" y="25.089" fill="#C7363A" width="1.534" height="1.582"/>
<rect x="0.416" y="26.67" fill="#C7363A" width="1.534" height="1.582"/>
<rect x="1.949" y="26.67" fill="#C7363A" width="1.534" height="1.582"/>
<rect x="1.949" y="28.252" fill="#C7363A" width="1.534" height="1.583"/>
<rect x="0.416" y="28.252" fill="#C7363A" width="1.534" height="1.583"/>
<rect x="0.416" y="29.835" fill="#C7363A" width="1.534" height="1.58"/>
<rect x="1.949" y="29.835" fill="#C7363A" width="1.534" height="1.58"/>
<rect x="1.949" y="31.415" fill="#C7363A" width="1.534" height="1.583"/>
<rect x="0.416" y="31.415" fill="#C7363A" width="1.534" height="1.583"/>
<rect x="15.751" y="20.343" fill="#C7363A" width="1.533" height="1.582"/>
<rect x="17.284" y="20.343" fill="#C7363A" width="1.534" height="1.582"/>
<rect x="17.284" y="21.925" fill="#C7363A" width="1.534" height="1.582"/>
<rect x="15.751" y="21.925" fill="#C7363A" width="1.533" height="1.582"/>
<rect x="15.751" y="23.507" fill="#C7363A" width="1.533" height="1.582"/>
<rect x="17.284" y="23.507" fill="#C7363A" width="1.534" height="1.582"/>
<rect x="17.284" y="25.089" fill="#C7363A" width="1.534" height="1.582"/>
<rect x="15.751" y="25.089" fill="#C7363A" width="1.533" height="1.582"/>
<rect x="15.751" y="26.67" fill="#C7363A" width="1.533" height="1.582"/>
<rect x="17.284" y="26.67" fill="#C7363A" width="1.534" height="1.582"/>
<rect x="17.284" y="28.252" fill="#C7363A" width="1.534" height="1.583"/>
<rect x="15.751" y="28.252" fill="#C7363A" width="1.533" height="1.583"/>
<rect x="15.751" y="29.835" fill="#C7363A" width="1.533" height="1.58"/>
<rect x="17.284" y="29.835" fill="#C7363A" width="1.534" height="1.58"/>
<rect x="17.284" y="31.415" fill="#C7363A" width="1.534" height="1.583"/>
<rect x="15.751" y="31.415" fill="#C7363A" width="1.533" height="1.583"/>
<rect x="31.085" y="20.343" fill="#C7363A" width="1.535" height="1.582"/>
<rect x="32.62" y="20.343" fill="#C7363A" width="1.532" height="1.582"/>
<rect x="32.62" y="21.925" fill="#C7363A" width="1.532" height="1.582"/>
<rect x="31.085" y="21.925" fill="#C7363A" width="1.535" height="1.582"/>
<rect x="31.085" y="23.507" fill="#C7363A" width="1.535" height="1.582"/>
<rect x="32.62" y="23.507" fill="#C7363A" width="1.532" height="1.582"/>
<rect x="32.62" y="25.089" fill="#C7363A" width="1.532" height="1.582"/>
<rect x="31.085" y="25.089" fill="#C7363A" width="1.535" height="1.582"/>
<rect x="31.085" y="26.67" fill="#C7363A" width="1.535" height="1.582"/>
<rect x="32.62" y="26.67" fill="#C7363A" width="1.532" height="1.582"/>
<rect x="32.62" y="28.252" fill="#C7363A" width="1.532" height="1.583"/>
<rect x="31.085" y="28.252" fill="#C7363A" width="1.535" height="1.583"/>
<rect x="31.085" y="29.835" fill="#C7363A" width="1.535" height="1.58"/>
<rect x="32.62" y="29.835" fill="#C7363A" width="1.532" height="1.58"/>
<rect x="32.62" y="31.415" fill="#C7363A" width="1.532" height="1.583"/>
<rect x="31.085" y="31.415" fill="#C7363A" width="1.535" height="1.583"/>
<rect x="9.616" y="23.507" fill="#C7363A" width="1.534" height="1.582"/>
<rect x="11.15" y="23.507" fill="#C7363A" width="1.533" height="1.582"/>
<rect x="11.15" y="25.089" fill="#C7363A" width="1.533" height="1.582"/>
<rect x="9.616" y="25.089" fill="#C7363A" width="1.534" height="1.582"/>
<rect x="9.616" y="26.67" fill="#C7363A" width="1.534" height="1.582"/>
<rect x="11.15" y="26.67" fill="#C7363A" width="1.533" height="1.582"/>
<rect x="11.15" y="28.252" fill="#C7363A" width="1.533" height="1.583"/>
<rect x="9.616" y="28.252" fill="#C7363A" width="1.534" height="1.583"/>
<rect x="24.951" y="23.507" fill="#C7363A" width="1.534" height="1.582"/>
<rect x="26.485" y="23.507" fill="#C7363A" width="1.533" height="1.582"/>
<rect x="26.485" y="25.089" fill="#C7363A" width="1.533" height="1.582"/>
<rect x="24.951" y="25.089" fill="#C7363A" width="1.534" height="1.582"/>
<rect x="24.951" y="26.67" fill="#C7363A" width="1.534" height="1.582"/>
<rect x="26.485" y="26.67" fill="#C7363A" width="1.533" height="1.582"/>
<rect x="26.485" y="28.252" fill="#C7363A" width="1.533" height="1.583"/>
<rect x="24.951" y="28.252" fill="#C7363A" width="1.534" height="1.583"/>
<rect x="40.285" y="26.67" fill="#C7363A" width="1.534" height="1.582"/>
<rect x="41.819" y="26.67" fill="#C7363A" width="1.532" height="1.582"/>
<rect x="41.819" y="28.252" fill="#C7363A" width="1.532" height="1.583"/>
<rect x="40.285" y="28.252" fill="#C7363A" width="1.534" height="1.583"/>
<rect x="40.285" y="23.507" fill="#C7363A" width="1.534" height="1.582"/>
<rect x="41.819" y="23.507" fill="#C7363A" width="1.532" height="1.582"/>
<rect x="41.819" y="25.089" fill="#C7363A" width="1.532" height="1.582"/>
<rect x="40.285" y="25.089" fill="#C7363A" width="1.534" height="1.582"/>
<rect x="40.285" y="29.835" fill="#C7363A" width="1.534" height="1.58"/>
<rect x="41.819" y="29.835" fill="#C7363A" width="1.532" height="1.58"/>
<rect x="41.819" y="31.415" fill="#C7363A" width="1.532" height="1.583"/>
<rect x="40.285" y="31.415" fill="#C7363A" width="1.534" height="1.583"/>
<rect x="46.42" y="26.67" fill="#C7363A" width="1.533" height="1.582"/>
<rect x="47.953" y="26.67" fill="#C7363A" width="1.532" height="1.582"/>
<rect x="47.953" y="28.252" fill="#C7363A" width="1.532" height="1.583"/>
<rect x="46.42" y="28.252" fill="#C7363A" width="1.533" height="1.583"/>
<rect x="46.42" y="23.507" fill="#C7363A" width="1.533" height="1.582"/>
<rect x="47.953" y="23.507" fill="#C7363A" width="1.532" height="1.582"/>
<rect x="47.953" y="25.089" fill="#C7363A" width="1.532" height="1.582"/>
<rect x="46.42" y="25.089" fill="#C7363A" width="1.533" height="1.582"/>
<rect x="46.42" y="29.835" fill="#C7363A" width="1.533" height="1.58"/>
<rect x="47.953" y="29.835" fill="#C7363A" width="1.532" height="1.58"/>
<rect x="47.953" y="31.415" fill="#C7363A" width="1.532" height="1.583"/>
<rect x="46.42" y="31.415" fill="#C7363A" width="1.533" height="1.583"/>
<rect x="52.555" y="26.67" fill="#C7363A" width="1.532" height="1.582"/>
<rect x="54.087" y="26.67" fill="#C7363A" width="1.534" height="1.582"/>
<rect x="54.087" y="28.252" fill="#C7363A" width="1.534" height="1.583"/>
<rect x="52.555" y="28.252" fill="#C7363A" width="1.532" height="1.583"/>
<rect x="52.555" y="23.507" fill="#C7363A" width="1.532" height="1.582"/>
<rect x="54.087" y="23.507" fill="#C7363A" width="1.534" height="1.582"/>
<rect x="54.087" y="25.089" fill="#C7363A" width="1.534" height="1.582"/>
<rect x="52.555" y="25.089" fill="#C7363A" width="1.532" height="1.582"/>
<rect x="52.555" y="20.343" fill="#C7363A" width="1.532" height="1.582"/>
<rect x="54.087" y="20.343" fill="#C7363A" width="1.534" height="1.582"/>
<rect x="54.087" y="21.925" fill="#C7363A" width="1.534" height="1.582"/>
<rect x="52.555" y="21.925" fill="#C7363A" width="1.532" height="1.582"/>
<rect x="52.555" y="29.835" fill="#C7363A" width="1.532" height="1.58"/>
<rect x="54.087" y="29.835" fill="#C7363A" width="1.534" height="1.58"/>
<rect x="54.087" y="31.415" fill="#C7363A" width="1.534" height="1.583"/>
<rect x="52.555" y="31.415" fill="#C7363A" width="1.532" height="1.583"/>
<rect x="9.616" y="29.835" fill="#C7363A" width="1.534" height="1.58"/>
<rect x="11.15" y="29.835" fill="#C7363A" width="1.533" height="1.58"/>
<rect x="11.15" y="31.415" fill="#C7363A" width="1.533" height="1.583"/>
<rect x="9.616" y="31.415" fill="#C7363A" width="1.534" height="1.583"/>
</svg>
